<svg xmlns="http://www.w3.org/2000/svg" width="64" height="64" viewBox="0 0 64 64">
  <defs>
    <linearGradient id="bg" x1="0" y1="0" x2="1" y2="1">
      <stop offset="0%" stop-color="#0f5fb5"/>
      <stop offset="100%" stop-color="#16b67f"/>
    </linearGradient>
  </defs>
  <rect x="2" y="2" width="60" height="60" rx="14" fill="url(#bg)"/>
  <path d="M20 37c-2.8 0-5-2.2-5-5v-4c0-5 4.1-9 9.1-9h15.8c5 0 9.1 4 9.1 9v4c0 2.8-2.2 5-5 5h-2.5l-2.4 4.3c-.7 1.3-2.5 1.3-3.2 0L33.5 37h-3l-2.4 4.3c-.7 1.3-2.5 1.3-3.2 0L22.5 37H20z" fill="#ffffff"/>
  <circle cx="24" cy="28" r="2.3" fill="#0f5fb5"/>
  <circle cx="31" cy="28" r="2.3" fill="#0f5fb5"/>
  <circle cx="43.5" cy="27" r="2.2" fill="#0f5fb5"/>
  <circle cx="39.5" cy="31" r="2.2" fill="#0f5fb5"/>
</svg>
